<svg id="Layer_1" data-name="Layer 1" xmlns="http://www.w3.org/2000/svg" viewBox="0 0 212 212" width="120"><defs><style>.cls-1{fill:#333745;}</style></defs><title>svg</title><path class="cls-1" d="M420.95,191.64a106,106,0,1,0,106,106A106,106,0,0,0,420.95,191.64ZM454,338.83a50.23,50.23,0,0,1-33.3,12.23,57.27,57.27,0,0,1-8.82-.7,66.17,66.17,0,0,1-37.84-20.55l-.34-.37L384.08,320l.34.37c14.75,16.14,42.07,23.74,60.48,7.85,10.21-8.81,12.22-23.29,4.69-33.69l-1-1.48c-5.51-7.5-16.85-13-26.32-12.89-2.86.05-5.13.71-6.39,1.86a4.35,4.35,0,0,0,1,7.10c1.56.79,4.06.89,6.71,1,4.09.16,8.73.35,13.21,2.91a17.82,17.82,0,0,1,6,24.90c-3.86,5.94-11,9.53-19.58,9.85l-1.58,0c-17.7,0-35-11.33-41.44-27.44a40.33,40.33,0,0,1-1.44-25.26c4.15-14.58,15-24.89,30.53-29,19-5.07,41.61.48,55,13.51l.36.35-9.76,10-.36-.35c-9.88-9.61-27.39-13.82-41.63-10-7.49,2-17.16,7-20.68,19.35a26.62,26.62,0,0,0,1,16.20c4.46,11.07,17.15,19.09,29.50,18.65,3-.11,6.81-1.09,8.36-3.49a3.84,3.84,0,0,0-1.24-5.12c-1.51-.86-4.09-1.00-6.82-1.08-3.84-.16-8.19-.33-12.45-2.48a18.35,18.35,0,0,1-4.09-30c3.83-3.48,9.21-5.39,15.56-5.50h.67c13.93,0,29.26,7.72,37.30,18.76l1,1.51C472.73,302.74,469.75,325.28,454,338.83Z" transform="translate(-314.94 -191.64)"/></svg>
